<svg version="1" xmlns="http://www.w3.org/2000/svg" width="266.667" height="266.667" viewBox="0 0 200.000000 200.000000"><path d="M92.8 55.5c-.2.1-2.5.5-5.3.8-7.1.9-10.3 1.5-16 3.4-2.7 1-5.3 1.7-5.7 1.8-.4 0-2.9 1.7-5.7 3.7-14 10.5-16.8 25.6-7.9 43.2 1.6 3.4 3.9 7.9 5 10.1 1.2 2.2 2.3 4.2 2.7 4.5.3.3 2.2 3 4.3 6.1 8.5 13.1 21.9 23.9 29.9 24.1 1.7.1 3.3.6 3.5 1.2.2.6.5 7.5.7 15.3.3 12.4.2 14.2-1.2 14.6-1.3.3-1.6 1.7-1.5 7.3.1 3.8.2 7.2.3 7.6.1.5 5.3.8 11.7.8h11.6l-.7-5.8c-.4-3.1-.8-6.5-.9-7.5 0-1-.7-2.1-1.4-2.6-.9-.5-1.4-5.5-1.8-17.6-.3-9.3-.7-17.2-1-17.6-.2-.4 1-1.7 2.7-3 11.8-8.4 23.1-24.4 28.5-40.4 5.2-15.8 2.5-31.4-7.1-39.8-3.3-2.9-12.8-7.5-17.1-8.3-2.1-.3-4.8-.9-5.9-1.1-2.3-.5-21.2-1.2-21.7-.8z"/></svg>